HIERARCHY
ROOT Hips
{
	OFFSET 0.000000 97.167313 0.000000
	CHANNELS 6 Xposition Yposition Zposition Xrotation Yrotation Zrotation
	JOINT Spine
	{
		OFFSET 0.000000 13.784798 0.064400
		CHANNELS 3 Xrotation Yrotation Zrotation
		JOINT Spine1
		{
			OFFSET 0.000000 12.037903 0.404700
			CHANNELS 3 Xrotation Yrotation Zrotation
			JOINT Spine2
			{
				OFFSET 0.000000 17.795601 0.420200
				CHANNELS 3 Xrotation Yrotation Zrotation
				JOINT Neck
				{
					OFFSET 0.000000 39.131302 11.954600
					CHANNELS 3 Xrotation Yrotation Zrotation
					JOINT Head
					{
						OFFSET 0.000000 14.456192 15.627699
						CHANNELS 3 Xrotation Yrotation Zrotation
						JOINT HeadTop_End
						{
							OFFSET 0.000000 15.703506 7.603401
							CHANNELS 3 Xrotation Yrotation Zrotation
							End Site
							{
								OFFSET 0.000000 17.447403 0.000000
							}
						}
					}
				}
				JOINT LeftShoulder
				{
					OFFSET 17.399500 24.608795 1.168800
					CHANNELS 3 Xrotation Yrotation Zrotation
					JOINT LeftArm
					{
						OFFSET 18.980635 5.765305 1.818600
						CHANNELS 3 Xrotation Yrotation Zrotation
						JOINT LeftForeArm
						{
							OFFSET 49.290169 0.000000 0.000000
							CHANNELS 3 Xrotation Yrotation Zrotation
							JOINT LeftHand
							{
								OFFSET 31.562012 0.000000 0.000000
								CHANNELS 3 Xrotation Yrotation Zrotation
								JOINT LeftHandThumb1
								{
									OFFSET 6.133995 -4.388519 7.076070
									CHANNELS 3 Xrotation Yrotation Zrotation
									JOINT LeftHandThumb2
									{
										OFFSET 6.037666 -3.485840 3.485847
										CHANNELS 3 Xrotation Yrotation Zrotation
										JOINT LeftHandThumb3
										{
											OFFSET 6.496506 -3.750763 3.750761
											CHANNELS 3 Xrotation Yrotation Zrotation
											JOINT LeftHandThumb4
											{
												OFFSET 5.616882 -3.242905 3.242910
												CHANNELS 3 Xrotation Yrotation Zrotation
												End Site
												{
													OFFSET -1.254608 7.132141 0.375429
												}
											}
										}
									}
								}
								JOINT LeftHandPinky1
								{
									OFFSET 18.920792 -0.453171 -11.426712
									CHANNELS 3 Xrotation Yrotation Zrotation
									JOINT LeftHandPinky2
									{
										OFFSET 4.919586 0.000000 0.000000
										CHANNELS 3 Xrotation Yrotation Zrotation
										JOINT LeftHandPinky3
										{
											OFFSET 5.233047 0.000000 0.000000
											CHANNELS 3 Xrotation Yrotation Zrotation
											JOINT LeftHandPinky4
											{
												OFFSET 5.571716 0.000000 0.000000
												CHANNELS 3 Xrotation Yrotation Zrotation
												End Site
												{
													OFFSET -3.459808 4.342407 -0.466164
												}
											}
										}
									}
								}
								JOINT LeftHandRing1
								{
									OFFSET 22.726120 -0.094986 -6.500475
									CHANNELS 3 Xrotation Yrotation Zrotation
									JOINT LeftHandRing2
									{
										OFFSET 6.408615 0.000000 0.000000
										CHANNELS 3 Xrotation Yrotation Zrotation
										JOINT LeftHandRing3
										{
											OFFSET 6.150223 0.000000 0.000000
											CHANNELS 3 Xrotation Yrotation Zrotation
											JOINT LeftHandRing4
											{
												OFFSET 6.145386 0.000000 0.000000
												CHANNELS 3 Xrotation Yrotation Zrotation
												End Site
												{
													OFFSET -3.671402 4.923981 -0.202372
												}
											}
										}
									}
								}
								JOINT LeftHandMiddle1
								{
									OFFSET 23.373947 0.000000 0.000001
									CHANNELS 3 Xrotation Yrotation Zrotation
									JOINT LeftHandMiddle2
									{
										OFFSET 6.996567 0.000000 0.000000
										CHANNELS 3 Xrotation Yrotation Zrotation
										JOINT LeftHandMiddle3
										{
											OFFSET 7.015945 0.000000 0.000000
											CHANNELS 3 Xrotation Yrotation Zrotation
											JOINT LeftHandMiddle4
											{
												OFFSET 7.721573 0.000000 0.000000
												CHANNELS 3 Xrotation Yrotation Zrotation
												End Site
												{
													OFFSET -4.651108 6.158463 0.251582
												}
											}
										}
									}
								}
								JOINT LeftHandIndex1
								{
									OFFSET 21.310577 -0.490082 6.209344
									CHANNELS 3 Xrotation Yrotation Zrotation
									JOINT LeftHandIndex2
									{
										OFFSET 7.536453 0.000000 0.000000
										CHANNELS 3 Xrotation Yrotation Zrotation
										JOINT LeftHandIndex3
										{
											OFFSET 7.512344 0.000000 0.000000
											CHANNELS 3 Xrotation Yrotation Zrotation
											JOINT LeftHandIndex4
											{
												OFFSET 10.212402 0.000000 0.000001
												CHANNELS 3 Xrotation Yrotation Zrotation
												End Site
												{
													OFFSET -5.180801 8.690506 1.388433
												}
											}
										}
									}
								}
							}
						}
					}
				}
				JOINT RightShoulder
				{
					OFFSET -17.399500 24.608795 1.168800
					CHANNELS 3 Xrotation Yrotation Zrotation
					JOINT RightArm
					{
						OFFSET -18.980635 5.765305 1.818600
						CHANNELS 3 Xrotation Yrotation Zrotation
						JOINT RightForeArm
						{
							OFFSET -49.290169 0.000000 0.000000
							CHANNELS 3 Xrotation Yrotation Zrotation
							JOINT RightHand
							{
								OFFSET -31.562012 0.000000 0.000000
								CHANNELS 3 Xrotation Yrotation Zrotation
								JOINT RightHandThumb1
								{
									OFFSET -6.133995 -4.388519 7.076070
									CHANNELS 3 Xrotation Yrotation Zrotation
									JOINT RightHandThumb2
									{
										OFFSET -6.037666 -3.485840 3.485847
										CHANNELS 3 Xrotation Yrotation Zrotation
										JOINT RightHandThumb3
										{
											OFFSET -6.496506 -3.750763 3.750761
											CHANNELS 3 Xrotation Yrotation Zrotation
											JOINT RightHandThumb4
											{
												OFFSET -5.616882 -3.242905 3.242910
												CHANNELS 3 Xrotation Yrotation Zrotation
												End Site
												{
													OFFSET 1.254608 7.132141 0.375429
												}
											}
										}
									}
								}
								JOINT RightHandIndex1
								{
									OFFSET -21.310577 -0.490082 6.209344
									CHANNELS 3 Xrotation Yrotation Zrotation
									JOINT RightHandIndex2
									{
										OFFSET -7.536453 0.000000 0.000000
										CHANNELS 3 Xrotation Yrotation Zrotation
										JOINT RightHandIndex3
										{
											OFFSET -7.512344 0.000000 0.000000
											CHANNELS 3 Xrotation Yrotation Zrotation
											JOINT RightHandIndex4
											{
												OFFSET -10.212402 0.000000 0.000001
												CHANNELS 3 Xrotation Yrotation Zrotation
												End Site
												{
													OFFSET 5.180801 8.690506 1.388433
												}
											}
										}
									}
								}
								JOINT RightHandMiddle1
								{
									OFFSET -23.373947 0.000000 0.000001
									CHANNELS 3 Xrotation Yrotation Zrotation
									JOINT RightHandMiddle2
									{
										OFFSET -6.996567 0.000000 0.000000
										CHANNELS 3 Xrotation Yrotation Zrotation
										JOINT RightHandMiddle3
										{
											OFFSET -7.015945 0.000000 0.000000
											CHANNELS 3 Xrotation Yrotation Zrotation
											JOINT RightHandMiddle4
											{
												OFFSET -7.721573 0.000000 0.000000
												CHANNELS 3 Xrotation Yrotation Zrotation
												End Site
												{
													OFFSET 4.651108 6.158463 0.251582
												}
											}
										}
									}
								}
								JOINT RightHandRing1
								{
									OFFSET -22.726120 -0.094986 -6.500475
									CHANNELS 3 Xrotation Yrotation Zrotation
									JOINT RightHandRing2
									{
										OFFSET -6.408615 0.000000 0.000000
										CHANNELS 3 Xrotation Yrotation Zrotation
										JOINT RightHandRing3
										{
											OFFSET -6.150223 0.000000 0.000000
											CHANNELS 3 Xrotation Yrotation Zrotation
											JOINT RightHandRing4
											{
												OFFSET -6.145386 0.000000 0.000000
												CHANNELS 3 Xrotation Yrotation Zrotation
												End Site
												{
													OFFSET 3.671402 4.923981 -0.202372
												}
											}
										}
									}
								}
								JOINT RightHandPinky1
								{
									OFFSET -18.920792 -0.453171 -11.426712
									CHANNELS 3 Xrotation Yrotation Zrotation
									JOINT RightHandPinky2
									{
										OFFSET -4.919586 0.000000 0.000000
										CHANNELS 3 Xrotation Yrotation Zrotation
										JOINT RightHandPinky3
										{
											OFFSET -5.233047 0.000000 0.000000
											CHANNELS 3 Xrotation Yrotation Zrotation
											JOINT RightHandPinky4
											{
												OFFSET -5.571716 0.000000 0.000000
												CHANNELS 3 Xrotation Yrotation Zrotation
												End Site
												{
													OFFSET 3.459808 4.342407 -0.466164
												}
											}
										}
									}
								}
							}
						}
					}
				}
			}
		}
	}
	JOINT LeftUpLeg
	{
		OFFSET 19.899099 -7.885101 -3.429500
		CHANNELS 3 Xrotation Yrotation Zrotation
		JOINT LeftLeg
		{
			OFFSET 1.745560 -36.997807 10.304700
			CHANNELS 3 Xrotation Yrotation Zrotation
			JOINT LeftFoot
			{
				OFFSET -1.745558 -29.803308 -13.615400
				CHANNELS 3 Xrotation Yrotation Zrotation
				JOINT LeftToeBase
				{
					OFFSET 1.181900 -18.539904 15.226099
					CHANNELS 3 Xrotation Yrotation Zrotation
					JOINT LeftToe_End
					{
						OFFSET -0.863701 1.402801 16.534700
						CHANNELS 3 Xrotation Yrotation Zrotation
						End Site
						{
							OFFSET 0.000000 16.616566 0.000000
						}
					}
				}
			}
		}
	}
	JOINT RightUpLeg
	{
		OFFSET -19.899099 -7.885101 -3.429500
		CHANNELS 3 Xrotation Yrotation Zrotation
		JOINT RightLeg
		{
			OFFSET -1.745560 -36.997807 10.304700
			CHANNELS 3 Xrotation Yrotation Zrotation
			JOINT RightFoot
			{
				OFFSET 1.745558 -29.803308 -13.615400
				CHANNELS 3 Xrotation Yrotation Zrotation
				JOINT RightToeBase
				{
					OFFSET -1.181900 -18.539904 15.226099
					CHANNELS 3 Xrotation Yrotation Zrotation
					JOINT RightToe_End
					{
						OFFSET 0.863701 1.402801 16.534700
						CHANNELS 3 Xrotation Yrotation Zrotation
						End Site
						{
							OFFSET 0.000000 16.616566 0.000000
						}
					}
				}
			}
		}
	}
}
MOTION
Frames: 4
Frame Time: 0.033333
-1.213521 92.561707 1.308021 2.912698 -28.995574 1.056241 7.836861 -0.338588 -2.550179 1.099239 -0.880580 2.383467 1.108678 -0.590398 2.446365 -3.843077 18.019154 -6.496239 -6.331608 13.021555 0.301661 -0.000000 0.000000 -0.000000 -0.061210 -8.759286 -0.071551 -55.250852 0.329440 -41.449368 11.584189 -65.827225 13.005287 -50.191099 12.352941 4.610802 17.551616 -5.699173 -12.932305 10.850482 26.127714 8.644874 20.926873 51.115876 0.218857 0.000000 0.000001 -0.000004 10.030104 13.637037 -84.750217 0.877147 0.062261 -64.595490 1.141251 1.253156 -55.016255 0.000000 0.000002 -0.000002 8.574357 2.179142 -75.149033 -0.207617 1.009283 -57.855029 0.443107 1.742168 -53.581294 -0.000000 -0.000001 0.000005 7.504730 1.174532 -63.778496 1.807741 1.475707 -64.567943 0.130377 -0.912266 -43.272493 0.000001 -0.000000 0.000008 13.980917 1.201531 -55.004412 0.370871 1.161701 -65.441852 1.983993 2.147982 -57.665142 -0.000001 0.000003 -0.000003 4.849279 7.760131 5.560462 -0.933508 -2.176904 61.845676 11.299279 18.943419 -3.987588 -0.459219 6.620141 5.830162 15.787952 -2.734670 -17.205668 -2.200986 -31.113424 7.362232 -6.567374 -4.138479 2.408032 -0.000001 0.000000 0.000004 2.371639 -3.659172 8.487425 -2.145600 -2.476764 18.673068 -1.904381 -4.821061 14.173151 -0.000001 0.000000 -0.000001 -1.976246 -5.707887 13.662375 0.283072 -5.105466 26.988045 -0.657223 -1.219356 16.125962 0.000001 0.000000 -0.000008 -3.263073 -8.562143 11.769091 4.036048 -4.062945 33.263059 2.108529 -3.160005 15.593820 -0.000000 0.000001 -0.000007 -6.474180 -11.347967 23.260669 10.724399 -2.570719 34.825123 6.419107 -3.079273 15.311184 -0.000001 0.000000 0.000000 -13.611757 18.047684 14.228225 17.102346 10.526503 -2.464099 -4.762161 -1.686663 -8.503524 -0.145140 0.011393 -0.312041 0.000000 -0.000000 -0.000000 -9.528006 -1.105547 -9.788163 13.111526 9.995405 1.017443 -6.840066 -1.414808 7.752767 -1.288169 -0.016071 0.149986 -0.000000 0.000001 0.000000 
-1.130276 91.151077 1.042705 4.586294 -29.529715 1.841119 8.776789 -0.203823 -2.708587 0.851885 -0.740678 2.341348 0.859210 -0.458286 2.369456 -5.808174 18.077376 -6.025595 -7.724666 12.945101 0.497191 -0.000000 -0.000000 0.000000 -0.032524 -8.502409 -0.072281 -55.866064 0.122050 -40.825386 8.291317 -66.176965 9.962878 -49.977877 10.899437 4.712029 17.551619 -5.699176 -12.932307 10.850480 26.127716 8.644876 20.926870 51.115872 0.218860 0.000003 0.000001 0.000001 10.030105 13.637037 -84.750217 0.877147 0.062260 -64.595496 1.141253 1.253153 -55.016259 -0.000001 0.000002 -0.000005 8.574358 2.179142 -75.149033 -0.207615 1.009281 -57.855035 0.443105 1.742169 -53.581301 0.000001 0.000002 0.000003 7.504729 1.174530 -63.778496 1.807741 1.475710 -64.567943 0.130376 -0.912266 -43.272493 0.000002 -0.000001 0.000002 13.980918 1.201533 -55.004412 0.370871 1.161706 -65.441839 1.983992 2.147985 -57.665142 -0.000001 -0.000002 -0.000004 5.039316 7.803717 6.202053 -0.813818 -2.143558 60.580076 10.248840 20.873997 -3.440538 0.852083 6.689165 4.404726 15.786874 -2.745911 -17.216919 -2.204034 -31.114042 7.357213 -6.568739 -4.135054 2.409212 -0.000004 -0.000001 -0.000001 2.467778 -3.429998 8.970814 -2.122479 -2.496838 19.205857 -1.860299 -4.836049 14.693313 -0.000001 -0.000003 -0.000003 -1.906936 -6.056479 14.343672 0.361454 -5.095858 27.745854 -0.643863 -1.228250 16.756213 0.000001 0.000000 -0.000008 -2.632311 -9.630889 12.591428 4.103212 -3.995485 34.219278 2.143918 -3.136430 16.238179 -0.000000 0.000001 -0.000003 -5.321881 -12.136089 22.860833 10.723797 -2.570129 34.788657 6.422789 -3.061317 15.469847 -0.000000 0.000000 0.000001 -17.183115 17.333002 15.293144 21.393952 10.710679 -2.534371 -6.742258 -1.280779 -9.541968 -0.145656 0.011399 -0.310958 0.000000 -0.000000 0.000000 -13.116060 -0.365887 -9.881971 16.987109 10.226736 1.027710 -9.181565 -1.340646 7.583213 -1.345855 -0.119634 0.153216 -0.000000 -0.000001 -0.000000 
-1.110715 88.553703 0.713457 6.521369 -30.052761 2.774668 9.971709 -0.041633 -2.939955 0.520481 -0.564180 2.304923 0.525317 -0.288878 2.289868 -8.034963 18.164589 -5.590967 -9.110218 12.857181 0.672124 -0.000000 0.000000 -0.000000 0.028997 -8.386706 -0.075690 -57.221050 0.205511 -40.236091 6.230821 -66.958141 8.009050 -50.023793 10.971023 4.962494 17.551612 -5.699174 -12.932305 10.850485 26.127714 8.644877 20.926878 51.115872 0.218857 -0.000001 0.000001 0.000001 10.030105 13.637040 -84.750223 0.877149 0.062261 -64.595496 1.141250 1.253159 -55.016252 -0.000000 0.000001 -0.000000 8.574357 2.179143 -75.149033 -0.207617 1.009282 -57.855035 0.443105 1.742168 -53.581297 0.000001 0.000001 0.000003 7.504731 1.174530 -63.778496 1.807739 1.475709 -64.567937 0.130376 -0.912266 -43.272493 -0.000000 -0.000001 0.000009 13.980917 1.201531 -55.004408 0.370871 1.161702 -65.441846 1.983992 2.147981 -57.665149 -0.000000 0.000003 0.000001 5.172025 7.934067 7.227973 -0.275862 -2.841050 58.838029 9.112193 24.068817 -3.157732 2.483102 6.935023 3.145000 15.778949 -2.780125 -17.247797 -2.221436 -31.114240 7.338488 -6.572784 -4.124642 2.412852 0.000001 -0.000005 0.000001 2.666116 -2.921152 10.031343 -2.070946 -2.540254 20.377953 -1.763471 -4.872646 15.837414 -0.000001 0.000003 0.000002 -1.725569 -6.819967 15.844243 0.535346 -5.074764 29.412731 -0.613960 -1.244090 18.142837 0.000001 -0.000000 -0.000004 -1.129406 -11.923666 14.472834 4.246980 -3.843272 36.322509 2.220807 -3.083110 17.655730 -0.000000 -0.000002 0.000002 -2.811500 -13.936408 22.093736 10.722656 -2.570178 34.709375 6.441311 -3.022125 15.819406 -0.000001 0.000000 0.000004 -22.573003 16.030775 17.091555 28.988938 10.557344 -2.903415 -10.279993 -0.614301 -10.557604 -0.146976 0.011428 -0.317237 0.000000 0.000000 0.000000 -18.869297 0.807573 -10.049526 24.644409 10.785284 1.073184 -12.744631 -1.273557 7.158410 -1.395887 -0.375388 0.171660 -0.000000 -0.000001 -0.000000 
-1.072912 85.012741 0.235867 9.130961 -30.500141 4.016415 11.805492 0.163503 -3.294873 -0.078624 -0.339060 2.339943 -0.077255 -0.062781 2.270914 -11.194794 18.304099 -5.172496 -9.926339 12.757759 0.714301 -0.000000 0.000000 -0.000000 0.328680 -8.534213 -0.100007 -58.288889 0.174567 -39.022585 2.902758 -67.798493 4.720100 -50.069538 10.452536 5.857828 17.551619 -5.699176 -12.932306 10.850485 26.127714 8.644873 20.926873 51.115876 0.218853 0.000004 0.000001 -0.000003 10.030105 13.637040 -84.750223 0.877146 0.062260 -64.595496 1.141251 1.253161 -55.016255 -0.000000 0.000003 -0.000000 8.574359 2.179141 -75.149033 -0.207617 1.009283 -57.855029 0.443106 1.742170 -53.581297 0.000001 0.000001 0.000002 7.504731 1.174531 -63.778496 1.807737 1.475709 -64.567937 0.130375 -0.912268 -43.272493 0.000001 -0.000001 0.000009 13.980919 1.201527 -55.004412 0.370875 1.161705 -65.441839 1.983994 2.147981 -57.665142 -0.000000 0.000003 0.000001 5.193570 8.278886 9.164172 1.434936 -5.263260 55.972383 7.572016 30.866697 -3.230237 4.913394 7.359580 1.699873 15.760537 -2.837395 -17.295736 -2.253895 -31.117201 7.308741 -6.576842 -4.114240 2.416475 -0.000000 -0.000001 0.000001 2.846287 -2.406384 11.087920 -2.018552 -2.582586 21.550087 -1.665922 -4.907304 16.981652 -0.000000 -0.000001 -0.000001 -1.504728 -7.577502 17.347697 0.710628 -5.051332 31.079642 -0.583616 -1.259213 19.529457 0.000001 0.000001 -0.000004 0.535162 -14.128250 16.459318 4.388913 -3.682787 38.425210 2.296380 -3.027945 19.073103 -0.000000 0.000001 -0.000002 -0.330351 -15.819896 21.486138 10.724457 -2.566361 34.630493 6.464308 -2.981461 16.169231 0.000000 -0.000002 0.000002 -29.456611 14.164671 19.286842 38.256562 10.099234 -3.370049 -14.400522 0.246919 -11.730641 -0.148915 0.011464 -0.322158 0.000000 -0.000000 -0.000000 -26.074628 2.253395 -10.158914 33.839882 11.429646 1.150311 -16.951631 -1.203274 6.687854 -1.433082 -0.676935 0.191706 -0.000000 -0.000001 -0.000000 
